<?xml version="1.0" encoding="utf-8"?>
<!-- Generator: Adobe Illustrator 15.0.2, SVG Export Plug-In . SVG Version: 6.00 Build 0)  -->
<!DOCTYPE svg PUBLIC "-//W3C//DTD SVG 1.1//EN" "http://www.w3.org/Graphics/SVG/1.1/DTD/svg11.dtd">
<svg version="1.1" id="Layer_1" xmlns="http://www.w3.org/2000/svg" xmlns:xlink="http://www.w3.org/1999/xlink" x="0px" y="0px"
	 width="20px" height="20px" viewBox="0 0 20 20" enable-background="new 0 0 20 20" xml:space="preserve">
<path opacity="0.1" fill="#FFFFFF" d="M4.499,3.141c0.419,0,0.814-0.163,1.11-0.459c0.612-0.612,0.612-1.609,0-2.221
	C5.313,0.164,4.918,0,4.499,0s-0.814,0.164-1.11,0.46c-0.297,0.297-0.46,0.691-0.46,1.11s0.164,0.814,0.46,1.111
	C3.685,2.978,4.08,3.141,4.499,3.141z M2.682,3.389c-0.297-0.297-0.691-0.46-1.111-0.46S0.757,3.092,0.46,3.389
	C0.164,3.685,0,4.08,0,4.499s0.164,0.814,0.46,1.11c0.297,0.297,0.691,0.46,1.11,0.46s0.814-0.163,1.111-0.46
	C3.294,4.997,3.294,4.001,2.682,3.389z M8.538,3.389c-0.297-0.297-0.691-0.46-1.111-0.46c-0.419,0-0.813,0.164-1.11,0.46
	c-0.612,0.612-0.612,1.608,0,2.221c0.297,0.297,0.691,0.46,1.11,0.46c0.42,0,0.814-0.163,1.111-0.46
	c0.297-0.296,0.46-0.691,0.46-1.11S8.835,3.685,8.538,3.389z M4.499,5.856c-0.419,0-0.814,0.164-1.11,0.46
	c-0.297,0.297-0.46,0.691-0.46,1.11c0,0.42,0.164,0.814,0.46,1.111c0.296,0.297,0.691,0.46,1.11,0.46s0.814-0.163,1.11-0.46
	c0.612-0.612,0.612-1.609,0-2.222C5.313,6.021,4.918,5.856,4.499,5.856z"/>
</svg>
