<?xml version="1.0" encoding="utf-8"?>
<!-- Generator: Adobe Illustrator 15.0.2, SVG Export Plug-In . SVG Version: 6.00 Build 0)  -->
<!DOCTYPE svg PUBLIC "-//W3C//DTD SVG 1.1//EN" "http://www.w3.org/Graphics/SVG/1.1/DTD/svg11.dtd">
<svg version="1.1" id="Icon" xmlns="http://www.w3.org/2000/svg" xmlns:xlink="http://www.w3.org/1999/xlink" x="0px" y="0px"
	 width="50px" height="50px" viewBox="0 0 50 50" enable-background="new 0 0 50 50" xml:space="preserve">
<path id="Rings" opacity="0.5" fill="#FFFFFF" d="M25,0C11.193,0,0,11.193,0,25c0,13.808,11.193,25,25,25c13.808,0,25-11.192,25-25
	C50,11.193,38.808,0,25,0z M25,44.817C14.055,44.817,5.183,35.944,5.183,25C5.183,14.055,14.055,5.183,25,5.183
	c10.944,0,19.817,8.872,19.817,19.817C44.817,35.944,35.944,44.817,25,44.817z M25,8.689C15.992,8.689,8.689,15.992,8.689,25
	c0,9.008,7.303,16.311,16.311,16.311c9.008,0,16.311-7.303,16.311-16.311C41.311,15.992,34.008,8.689,25,8.689z M25,36.28
	c-6.23,0-11.28-5.051-11.28-11.28c0-6.23,5.05-11.28,11.28-11.28c6.229,0,11.28,5.05,11.28,11.28
	C36.28,31.229,31.229,36.28,25,36.28z M25,16.235c-4.841,0-8.765,3.924-8.765,8.765c0,4.841,3.924,8.766,8.765,8.766
	c4.841,0,8.766-3.925,8.766-8.766C33.766,20.159,29.841,16.235,25,16.235z"/>
<circle fill="#FFFFFF" cx="25" cy="25" r="8.511"/>
<circle fill="#60316D" cx="25" cy="25" r="3.201"/>
</svg>
